<svg width="19" height="17" viewBox="0 0 19 17" fill="none" xmlns="http://www.w3.org/2000/svg">
<path d="M4.025 12.1714L3.63929 13.2036L3.38929 13.8643L5.44643 13.2464L5.94286 13.0964L6.43929 13.2464C7.27143 13.5 8.18214 13.6393 9.14286 13.6393C13.5964 13.6393 16.5714 10.7643 16.5714 7.925C16.5714 5.08571 13.5964 2.21071 9.14286 2.21071C4.68929 2.21071 1.71429 5.08929 1.71429 7.92857C1.71429 9.18214 2.25 10.3893 3.24643 11.3893L4.025 12.1714ZM2.63214 15.8821L0.571429 16.5L1.32857 14.4821L2.03571 12.6C0.760714 11.325 0 9.7 0 7.92857C0 3.825 4.09286 0.5 9.14286 0.5C14.1929 0.5 18.2857 3.825 18.2857 7.92857C18.2857 12.0321 14.1929 15.3571 9.14286 15.3571C8.01786 15.3571 6.93929 15.1929 5.94286 14.8893L2.63571 15.8821H2.63214Z" fill="white"/>
</svg>
