<svg width="40" height="32" viewBox="0 0 40 32" fill="none" xmlns="http://www.w3.org/2000/svg">
<g clip-path="url(#clip0_6_392)">
<path d="M26 11C26 17.075 20.1813 22 13 22C10.6125 22 8.38125 21.4563 6.45625 20.5063C5.9875 20.7563 5.45625 21 4.875 21.2188C3.7375 21.65 2.3625 22 1 22C0.56875 22 0.18125 21.7187 0.05 21.3062C-0.08125 20.8937 0.0625 20.4437 0.4125 20.1875L0.425 20.175C0.4375 20.1625 0.4625 20.15 0.49375 20.125C0.55625 20.075 0.65 20 0.7625 19.8937C0.9875 19.6875 1.29375 19.3875 1.59375 19C1.9375 18.5625 2.2625 18.0375 2.48125 17.4562C0.91875 15.6437 0 13.4125 0 11C0 4.925 5.81875 0 13 0C20.1813 0 26 4.925 26 11Z" fill="#0D6EFD"/>
<path opacity="0.4" d="M14.4688 23.9375C21.8063 23.3062 28 18.0188 28 11C28 10.675 27.9875 10.35 27.9625 10.0312C34.6937 10.4437 40 15.2 40 21C40 23.4125 39.0813 25.6437 37.525 27.4625C37.7438 28.05 38.0687 28.5688 38.4125 29.0063C38.7125 29.3938 39.0188 29.6937 39.2438 29.9C39.3563 30 39.45 30.0813 39.5125 30.1313C39.5438 30.1563 39.5687 30.175 39.5812 30.1812L39.5938 30.1938C39.9437 30.45 40.0875 30.9 39.9562 31.3125C39.825 31.725 39.4375 32.0062 39.0062 32.0062C37.6437 32.0062 36.2687 31.6563 35.125 31.225C34.55 31.0063 34.0125 30.7625 33.55 30.5125C31.6187 31.4563 29.3875 32 27 32C21.025 32 15.9875 28.5875 14.4688 23.9375Z" fill="black"/>
</g>
<defs>
<clipPath id="clip0_6_392">
<rect width="40" height="32" fill="white"/>
</clipPath>
</defs>
</svg>
