<svg width="36" height="32" viewBox="0 0 36 32" fill="none" xmlns="http://www.w3.org/2000/svg">
<path opacity="0.4" d="M8.99998 14C8.28748 14 7.63123 14.375 7.27498 14.9937L0.274981 26.9937C-0.0875193 27.6125 -0.0875193 28.375 0.268731 29C0.624981 29.625 1.28123 30 1.99998 30H27C27.7125 30 28.3687 29.625 28.725 29.0063L35.725 17.0063C36.0875 16.3875 36.0875 15.625 35.7312 15C35.375 14.375 34.7187 14 34 14H8.99998Z" fill="black"/>
<path d="M28.8375 28.8188L29.85 27.075C29.6625 27.7438 29.3062 28.3375 28.8375 28.8188ZM30 14H9C8.2875 14 7.63125 14.375 7.275 14.9937L0.275 26.9937C-0.0875 27.6125 -0.0875 28.375 0.26875 29C0.33125 29.1063 0.39375 29.2 0.46875 29.2875C0.175 28.9375 0 28.4875 0 28V6C0 3.79375 1.79375 2 4 2H11.3438C12.4062 2 13.425 2.41875 14.175 3.16875L15.8313 4.825C16.5813 5.575 17.6 5.99375 18.6625 5.99375H26C28.2062 5.99375 30 7.7875 30 9.99375V13.9937V14ZM0.69375 29.5125C1.05 29.8188 1.5125 30 2 30C1.5 30 1.04375 29.8188 0.69375 29.5125Z" fill="white"/>
</svg>
