<svg width="32" height="32" viewBox="0 0 32 32" fill="none" xmlns="http://www.w3.org/2000/svg">
<g clip-path="url(#clip0_6_347)">
<path opacity="0.8" d="M9.93751 9.93751C10.525 9.35001 11.475 9.35001 12.0563 9.93751L17.0563 14.9375C17.6438 15.525 17.6438 16.475 17.0563 17.0563C16.4688 17.6375 15.5188 17.6438 14.9375 17.0563L9.93751 12.0563C9.35001 11.4688 9.35001 10.5188 9.93751 9.93751Z" fill="#444444"/>
<path d="M14 2C14 0.89375 14.8937 0 16 0C24.8375 0 32 7.1625 32 16C32 24.8375 24.8375 32 16 32C7.1625 32 0 24.8375 0 16C0 11.525 1.84375 7.475 4.8 4.56875C5.5875 3.79375 6.85625 3.80625 7.63125 4.6C8.40625 5.39375 8.39375 6.65625 7.6 7.43125C5.375 9.60625 4 12.6437 4 16C4 22.625 9.375 28 16 28C22.625 28 28 22.625 28 16C28 10.0563 23.675 5.11875 18 4.16875V6C18 7.10625 17.1063 8 16 8C14.8937 8 14 7.10625 14 6V2Z" fill="white"/>
</g>
<defs>
<clipPath id="clip0_6_347">
<rect width="32" height="32" fill="white"/>
</clipPath>
</defs>
</svg>
