<svg width="28" height="32" viewBox="0 0 28 32" fill="none" xmlns="http://www.w3.org/2000/svg">
<g clip-path="url(#clip0_6_386)">
<path d="M0 30.1437C0 23.9875 4.9875 19 11.1438 19H16.8563C23.0125 19 28 23.9875 28 30.1437C28 31.1687 27.1687 32 26.1437 32H1.85625C0.83125 32 0 31.1687 0 30.1437Z" fill="#0D6EFD"/>
<path opacity="0.4" d="M6 8C6 5.87827 6.84285 3.84344 8.34315 2.34315C9.84344 0.842855 11.8783 0 14 0C16.1217 0 18.1566 0.842855 19.6569 2.34315C21.1571 3.84344 22 5.87827 22 8C22 10.1217 21.1571 12.1566 19.6569 13.6569C18.1566 15.1571 16.1217 16 14 16C11.8783 16 9.84344 15.1571 8.34315 13.6569C6.84285 12.1566 6 10.1217 6 8Z" fill="black"/>
</g>
<defs>
<clipPath id="clip0_6_386">
<rect width="28" height="32" fill="white"/>
</clipPath>
</defs>
</svg>
