<svg width="28" height="32" viewBox="0 0 28 32" fill="none" xmlns="http://www.w3.org/2000/svg">
<g clip-path="url(#clip0_6_404)">
<path opacity="0.8" d="M18 28C18 29.0625 17.5812 30.0812 16.8312 30.8312C16.0812 31.5812 15.0625 32 14 32C12.9375 32 11.9187 31.5812 11.1687 30.8312C10.4187 30.0812 10 29.0625 10 28H14H18Z" fill="#444444"/>
<path d="M14 0C12.8938 0 12 0.89375 12 2V3.2C7.43752 4.125 4.00002 8.1625 4.00002 13V14.175C4.00002 17.1125 2.91877 19.95 0.968774 22.15L0.506274 22.6688C-0.0187256 23.2563 -0.143726 24.1 0.175024 24.8188C0.493774 25.5375 1.21252 26 2.00002 26H26C26.7875 26 27.5 25.5375 27.825 24.8188C28.15 24.1 28.0188 23.2563 27.4938 22.6688L27.0313 22.15C25.0813 19.95 24 17.1188 24 14.175V13C24 8.1625 20.5625 4.125 16 3.2V2C16 0.89375 15.1063 0 14 0Z" fill="white"/>
</g>
<defs>
<clipPath id="clip0_6_404">
<rect width="28" height="32" fill="white"/>
</clipPath>
</defs>
</svg>
