<svg width="28" height="32" viewBox="0 0 28 32" fill="none" xmlns="http://www.w3.org/2000/svg">
<path d="M23 6C21.3438 6 20 7.34375 20 9V27C20 28.6562 21.3438 30 23 30H25C26.6562 30 28 28.6562 28 27V9C28 7.34375 26.6562 6 25 6H23ZM3 14C1.34375 14 0 15.3438 0 17V27C0 28.6562 1.34375 30 3 30H5C6.65625 30 8 28.6562 8 27V17C8 15.3438 6.65625 14 5 14H3Z" fill="white"/>
<path opacity="0.8" d="M10 5C10 3.34375 11.3438 2 13 2H15C16.6562 2 18 3.34375 18 5V27C18 28.6562 16.6562 30 15 30H13C11.3438 30 10 28.6562 10 27V5Z" fill="#444444"/>
</svg>
