<svg width="54" height="43" viewBox="0 0 54 43" fill="none" xmlns="http://www.w3.org/2000/svg">
<path d="M13.5 5V31.25H40.5V5H13.5ZM9 31.25V5V0.5H13.5H40.5H45V5V31.25H47.25V35.75H45H40.5H13.5H9H6.75V31.25H9ZM6 24.5V29H4.5V38H49.5V29H48V24.5H49.5H54V29V38V42.5H49.5H4.5H0V38V29V24.5H4.5H6ZM36.0938 14.3375L26.0906 24.3406L24.4969 25.9344L22.9031 24.3406L17.9062 19.3438L16.3125 17.75L19.5 14.5719L21.0938 16.1656L24.5062 19.5781L32.9062 11.1594L34.5 9.56562L37.6781 12.7438L36.0844 14.3375H36.0938Z" fill="white"/>
</svg>
