<svg width="48" height="48" viewBox="0 0 48 48" fill="none" xmlns="http://www.w3.org/2000/svg">
<path d="M42 12C43.5913 12 45.1174 11.3679 46.2426 10.2426C47.3679 9.11742 48 7.5913 48 6C48 4.4087 47.3679 2.88258 46.2426 1.75736C45.1174 0.632141 43.5913 0 42 0C40.4087 0 38.8826 0.632141 37.7574 1.75736C36.6321 2.88258 36 4.4087 36 6C36 7.5913 36.6321 9.11742 37.7574 10.2426C38.8826 11.3679 40.4087 12 42 12ZM12 3C5.37188 3 0 8.37188 0 15C0 21.6281 5.37188 27 12 27H36C39.3094 27 42 29.6906 42 33C42 35.6156 40.3219 37.8469 37.9875 38.6625C36.9094 37.0594 35.0813 36 33 36C29.6906 36 27 38.6906 27 42C27 45.3094 29.6906 48 33 48C35.3156 48 37.3219 46.6875 38.325 44.775C43.8375 43.6969 48 38.8313 48 33C48 26.3719 42.6281 21 36 21H12C8.69063 21 6 18.3094 6 15C6 11.6906 8.69063 9 12 9H24V10.3219C24 11.25 24.75 12 25.6781 12C26.0531 12 26.4094 11.8781 26.7094 11.6437L32.4094 7.20938C32.7844 6.91875 33 6.46875 33 6C33 5.53125 32.7844 5.08125 32.4094 4.79062L26.7 0.35625C26.4094 0.13125 26.0437 0 25.6687 0C24.75 0 24 0.75 24 1.67812V3H12ZM11.1938 39C10.1531 37.2094 8.22188 36 6 36C2.69063 36 0 38.6906 0 42C0 45.3094 2.69063 48 6 48C8.22188 48 10.1625 46.7906 11.1938 45H15V46.3219C15 47.25 15.75 48 16.6781 48C17.0531 48 17.4094 47.8781 17.7094 47.6438L23.4094 43.2094C23.7844 42.9187 24 42.4688 24 42C24 41.5312 23.7844 41.0813 23.4094 40.7906L17.7094 36.3562C17.4187 36.1312 17.0531 36 16.6781 36C15.75 36 15 36.75 15 37.6781V39H11.1938Z" fill="#0D6EFD"/>
</svg>
