<svg width="48" height="42" viewBox="0 0 48 42" fill="none" xmlns="http://www.w3.org/2000/svg">
<path d="M3 1.5C3 0.675 2.325 0 1.5 0C0.675 0 0 0.675 0 1.5V34.5C0 38.6438 3.35625 42 7.5 42H46.5C47.325 42 48 41.325 48 40.5C48 39.675 47.325 39 46.5 39H7.5C5.01562 39 3 36.9844 3 34.5V1.5ZM18 14.25C18.5967 14.25 19.169 14.0129 19.591 13.591C20.0129 13.169 20.25 12.5967 20.25 12C20.25 11.4033 20.0129 10.831 19.591 10.409C19.169 9.98705 18.5967 9.75 18 9.75C17.4033 9.75 16.831 9.98705 16.409 10.409C15.9871 10.831 15.75 11.4033 15.75 12C15.75 12.5967 15.9871 13.169 16.409 13.591C16.831 14.0129 17.4033 14.25 18 14.25ZM29.25 21C29.25 20.4033 29.0129 19.831 28.591 19.409C28.169 18.9871 27.5967 18.75 27 18.75C26.4033 18.75 25.831 18.9871 25.409 19.409C24.9871 19.831 24.75 20.4033 24.75 21C24.75 21.5967 24.9871 22.169 25.409 22.591C25.831 23.0129 26.4033 23.25 27 23.25C27.5967 23.25 28.169 23.0129 28.591 22.591C29.0129 22.169 29.25 21.5967 29.25 21ZM36 29.25C36.5967 29.25 37.169 29.0129 37.591 28.591C38.0129 28.169 38.25 27.5967 38.25 27C38.25 26.4033 38.0129 25.831 37.591 25.409C37.169 24.9871 36.5967 24.75 36 24.75C35.4033 24.75 34.831 24.9871 34.409 25.409C33.9871 25.831 33.75 26.4033 33.75 27C33.75 27.5967 33.9871 28.169 34.409 28.591C34.831 29.0129 35.4033 29.25 36 29.25ZM41.25 9C41.25 8.40326 41.0129 7.83097 40.591 7.40901C40.169 6.98705 39.5967 6.75 39 6.75C38.4033 6.75 37.831 6.98705 37.409 7.40901C36.9871 7.83097 36.75 8.40326 36.75 9C36.75 9.59674 36.9871 10.169 37.409 10.591C37.831 11.0129 38.4033 11.25 39 11.25C39.5967 11.25 40.169 11.0129 40.591 10.591C41.0129 10.169 41.25 9.59674 41.25 9ZM15 29.25C15.5967 29.25 16.169 29.0129 16.591 28.591C17.0129 28.169 17.25 27.5967 17.25 27C17.25 26.4033 17.0129 25.831 16.591 25.409C16.169 24.9871 15.5967 24.75 15 24.75C14.4033 24.75 13.831 24.9871 13.409 25.409C12.9871 25.831 12.75 26.4033 12.75 27C12.75 27.5967 12.9871 28.169 13.409 28.591C13.831 29.0129 14.4033 29.25 15 29.25Z" fill="#0D6EFD"/>
</svg>
