<svg width="32" height="32" viewBox="0 0 32 32" fill="none" xmlns="http://www.w3.org/2000/svg">
<path d="M3 4C1.34375 4 0 5.34375 0 7C0 7.94375 0.44375 8.83125 1.2 9.4L14.8 19.6C15.5125 20.1313 16.4875 20.1313 17.2 19.6L30.8 9.4C31.5562 8.83125 32 7.94375 32 7C32 5.34375 30.6562 4 29 4H3Z" fill="#0D6EFD"/>
<path opacity="0.4" d="M0 7V24C0 26.2062 1.79375 28 4 28H28C30.2062 28 32 26.2062 32 24V7C32 7.94375 31.5562 8.83125 30.8 9.4L17.2 19.6C16.4875 20.1313 15.5125 20.1313 14.8 19.6L1.2 9.4C0.44375 8.83125 0 7.94375 0 7Z" fill="black"/>
</svg>
