<svg width="19" height="15" viewBox="0 0 19 15" fill="none" xmlns="http://www.w3.org/2000/svg">
<path d="M2.73963 1.875C2.43492 1.875 2.18561 2.15625 2.18561 2.5V3.36328L8.1586 8.89453C8.87536 9.55859 9.90375 9.55859 10.6205 8.89453L16.59 3.36328V2.5C16.59 2.15625 16.3407 1.875 16.036 1.875H2.73963ZM2.18561 5.78906V12.5C2.18561 12.8438 2.43492 13.125 2.73963 13.125H16.036C16.3407 13.125 16.59 12.8438 16.59 12.5V5.78906L11.6731 10.3437C10.3435 11.5742 8.42868 11.5742 7.10251 10.3437L2.18561 5.78906ZM0.52356 2.5C0.52356 1.12109 1.51733 0 2.73963 0H16.036C17.2583 0 18.2521 1.12109 18.2521 2.5V12.5C18.2521 13.8789 17.2583 15 16.036 15H2.73963C1.51733 15 0.52356 13.8789 0.52356 12.5V2.5Z" fill="black"/>
</svg>
