<svg width="15" height="18" viewBox="0 0 15 18" fill="none" xmlns="http://www.w3.org/2000/svg">
<path d="M5.01109 5.0625V6.75H9.99724V5.0625C9.99724 3.50859 8.88159 2.25 7.50417 2.25C6.12674 2.25 5.01109 3.50859 5.01109 5.0625ZM3.01663 6.75V5.0625C3.01663 2.26758 5.02668 0 7.50417 0C9.98166 0 11.9917 2.26758 11.9917 5.0625V6.75H12.4903C13.5904 6.75 14.4848 7.75898 14.4848 9V15.75C14.4848 16.991 13.5904 18 12.4903 18H2.51802C1.41795 18 0.52356 16.991 0.52356 15.75V9C0.52356 7.75898 1.41795 6.75 2.51802 6.75H3.01663Z" fill="black"/>
</svg>
