<svg width="17" height="20" viewBox="0 0 17 20" fill="none" xmlns="http://www.w3.org/2000/svg">
<path d="M11.0499 5C11.0499 4.1712 10.758 3.37634 10.2385 2.79029C9.71905 2.20424 9.01446 1.875 8.27979 1.875C7.54512 1.875 6.84054 2.20424 6.32105 2.79029C5.80156 3.37634 5.50971 4.1712 5.50971 5C5.50971 5.8288 5.80156 6.62366 6.32105 7.20971C6.84054 7.79576 7.54512 8.125 8.27979 8.125C9.01446 8.125 9.71905 7.79576 10.2385 7.20971C10.758 6.62366 11.0499 5.8288 11.0499 5ZM3.84766 5C3.84766 3.67392 4.31461 2.40215 5.1458 1.46447C5.97699 0.526784 7.10432 0 8.27979 0C9.45527 0 10.5826 0.526784 11.4138 1.46447C12.245 2.40215 12.7119 3.67392 12.7119 5C12.7119 6.32608 12.245 7.59785 11.4138 8.53553C10.5826 9.47322 9.45527 10 8.27979 10C7.10432 10 5.97699 9.47322 5.1458 8.53553C4.31461 7.59785 3.84766 6.32608 3.84766 5ZM2.23062 18.125H14.329C14.0208 15.6523 12.1371 13.75 9.8622 13.75H6.69738C4.42245 13.75 2.53879 15.6523 2.23062 18.125ZM0.52356 18.8398C0.52356 14.9922 3.28672 11.875 6.69738 11.875H9.8622C13.2729 11.875 16.036 14.9922 16.036 18.8398C16.036 19.4805 15.5755 20 15.0076 20H1.55195C0.984086 20 0.52356 19.4805 0.52356 18.8398Z" fill="black"/>
</svg>
